<svg version="1.0" xmlns="http://www.w3.org/2000/svg"
 width="64.000000pt" height="64.000000pt" viewBox="0 0 64.000000 64.000000"
 preserveAspectRatio="xMidYMid meet">
<metadata>
Created by potrace 1.16, written by Peter Selinger 2001-2019
</metadata>
<circle cx="32" cy="32" r="30" fill="rgb(123 175 111)" />
<g transform="translate(0.000000,64.000000) scale(0.100000,-0.100000)"
fill="#000000" stroke="none">
<path d="M282 584 c-49 -13 -132 -67 -132 -86 0 -4 11 -8 25 -8 14 0 26 -4 26
-10 1 -5 2 -19 3 -31 1 -21 38 -48 66 -49 8 0 32 9 52 20 39 21 48 15 48 -33
0 -37 -46 -125 -69 -132 -17 -5 -21 -15 -21 -46 0 -26 -4 -39 -13 -39 -15 0
-48 33 -65 65 -11 19 -11 18 -12 -6 0 -15 9 -38 20 -52 11 -14 20 -31 20 -37
0 -7 11 -21 25 -32 14 -11 23 -23 20 -28 -7 -11 32 -20 93 -20 58 0 62 6 33
54 -19 31 -19 31 5 69 15 22 32 37 44 37 18 0 20 -6 18 -57 -3 -52 -1 -58 17
-58 17 0 19 6 17 37 -2 23 1 38 7 38 6 0 11 -7 11 -15 0 -8 3 -15 8 -15 19 1
32 19 38 57 6 40 5 43 -22 55 -16 7 -37 23 -46 34 -10 12 -37 30 -60 40 l-43
19 43 3 c-23 2 -42 7 -42 13 0 5 -11 9 -24 9 -13 0 -29 6 -35 13 -13 16 15 46
64 68 41 19 43 42 4 56 -50 19 -35 43 41 65 76 21 79 21 148" fill="rgb(85 120 160)"/>
</g>
</svg>
