<?xml version="1.0" encoding="UTF-8" standalone="no"?>
<!DOCTYPE svg PUBLIC "-//W3C//DTD SVG 1.1//EN" "http://www.w3.org/Graphics/SVG/1.1/DTD/svg11.dtd">
<svg xmlns="http://www.w3.org/2000/svg" version="1.1" viewBox="0.00 0.00 489.00 496.00">
<g stroke-width="2.00" fill="none" stroke-linecap="butt">
<path stroke="#6fbc97" vector-effect="non-scaling-stroke" d="
  M 461.88 38.07
  Q 460.77 38.64 459.95 39.45
  Q 400.26 98.47 340.57 157.54"
/>
<path stroke="#c3e0aa" vector-effect="non-scaling-stroke" d="
  M 340.57 157.54
  C 314.72 160.68 295.81 172.39 290.31 199.22
  Q 289.24 204.46 288.38 209.30"
/>
<path stroke="#6fbc97" vector-effect="non-scaling-stroke" d="
  M 288.38 209.30
  L 269.26 227.77"
/>
<path stroke="#c3e0aa" vector-effect="non-scaling-stroke" d="
  M 269.26 227.77
  L 269.25 158.01
  Q 269.25 157.50 268.74 157.50
  L 204.08 157.50
  Q 203.63 157.50 203.48 157.91
  L 157.43 284.62
  A 0.29 0.29 0.0 0 1 156.89 284.62
  L 110.54 157.90
  Q 110.39 157.50 109.96 157.50
  L 45.50 157.50
  A 0.50 0.50 0.0 0 0 45.00 158.00
  L 45.00 343.50
  Q 45.00 344.00 45.50 344.00
  L 84.50 344.00
  A 0.50 0.50 0.0 0 0 85.00 343.50
  L 85.00 207.22
  Q 85.00 204.32 85.99 207.04
  L 135.68 343.50
  A 0.90 0.88 80.4 0 0 136.50 344.09
  L 151.37 344.31"
/>
<path stroke="#6fbc97" vector-effect="non-scaling-stroke" d="
  M 151.37 344.31
  L 32.04 462.26"
/>
<path stroke="#acdbec" vector-effect="non-scaling-stroke" d="
  M 151.37 344.31
  L 177.62 344.09
  Q 178.44 344.08 178.72 343.31
  L 193.54 302.50"
/>
<path stroke="#6fbc97" vector-effect="non-scaling-stroke" d="
  M 193.54 302.50
  L 228.94 267.87"
/>
<path stroke="#acdbec" vector-effect="non-scaling-stroke" d="
  M 228.94 267.87
  L 228.98 343.46
  A 0.54 0.54 0.0 0 0 229.52 344.00
  L 268.73 344.00
  A 0.53 0.52 0.0 0 0 269.26 343.48
  L 269.26 227.77"
/>
<path stroke="#acdbec" vector-effect="non-scaling-stroke" d="
  M 288.38 209.30
  Q 288.12 245.02 288.30 280.33
  C 288.44 308.36 296.08 331.84 325.57 340.84
  Q 335.93 344.00 343.75 344.00
  Q 394.62 344.00 445.23 344.00
  A 0.52 0.52 0.0 0 0 445.75 343.48
  L 445.75 305.52
  A 0.52 0.52 0.0 0 0 445.23 305.00
  Q 400.88 304.99 356.45 305.01
  Q 345.60 305.01 341.20 303.47
  Q 328.37 298.99 328.29 282.75
  Q 328.20 265.61 328.31 220.75
  C 328.33 210.88 330.82 201.92 340.48 198.15
  Q 344.50 196.58 356.87 196.55
  Q 381.59 196.48 406.30 196.50
  Q 406.87 196.50 407.28 196.09
  L 445.30 158.08
  Q 445.80 157.57 445.09 157.57
  L 340.57 157.54"
/>
<path stroke="#c3e0aa" vector-effect="non-scaling-stroke" d="
  M 228.94 267.87
  L 228.98 206.01
  Q 228.98 204.51 228.47 205.92
  L 193.54 302.50"
/>
</g>
<path fill="#86c155" d="
  M 92.55 0.00
  L 396.55 0.00
  Q 435.74 8.09 461.88 38.07
  Q 460.77 38.64 459.95 39.45
  Q 400.26 98.47 340.57 157.54
  C 314.72 160.68 295.81 172.39 290.31 199.22
  Q 289.24 204.46 288.38 209.30
  L 269.26 227.77
  L 269.25 158.01
  Q 269.25 157.50 268.74 157.50
  L 204.08 157.50
  Q 203.63 157.50 203.48 157.91
  L 157.43 284.62
  A 0.29 0.29 0.0 0 1 156.89 284.62
  L 110.54 157.90
  Q 110.39 157.50 109.96 157.50
  L 45.50 157.50
  A 0.50 0.50 0.0 0 0 45.00 158.00
  L 45.00 343.50
  Q 45.00 344.00 45.50 344.00
  L 84.50 344.00
  A 0.50 0.50 0.0 0 0 85.00 343.50
  L 85.00 207.22
  Q 85.00 204.32 85.99 207.04
  L 135.68 343.50
  A 0.90 0.88 80.4 0 0 136.50 344.09
  L 151.37 344.31
  L 32.04 462.26
  Q 2.33 431.08 0.00 387.43
  L 0.00 107.19
  C 2.78 53.48 39.98 10.68 92.55 0.00
  Z"
/>
<path fill="#58b6d8" d="
  M 461.88 38.07
  C 480.59 60.47 488.71 85.37 488.72 114.31
  Q 488.78 246.64 488.75 378.99
  Q 488.75 391.85 487.76 398.95
  C 480.57 450.75 439.74 489.46 387.94 496.00
  L 100.45 496.00
  Q 60.46 490.83 32.04 462.26
  L 151.37 344.31
  L 177.62 344.09
  Q 178.44 344.08 178.72 343.31
  L 193.54 302.50
  L 228.94 267.87
  L 228.98 343.46
  A 0.54 0.54 0.0 0 0 229.52 344.00
  L 268.73 344.00
  A 0.53 0.52 0.0 0 0 269.26 343.48
  L 269.26 227.77
  L 288.38 209.30
  Q 288.12 245.02 288.30 280.33
  C 288.44 308.36 296.08 331.84 325.57 340.84
  Q 335.93 344.00 343.75 344.00
  Q 394.62 344.00 445.23 344.00
  A 0.52 0.52 0.0 0 0 445.75 343.48
  L 445.75 305.52
  A 0.52 0.52 0.0 0 0 445.23 305.00
  Q 400.88 304.99 356.45 305.01
  Q 345.60 305.01 341.20 303.47
  Q 328.37 298.99 328.29 282.75
  Q 328.20 265.61 328.31 220.75
  C 328.33 210.88 330.82 201.92 340.48 198.15
  Q 344.50 196.58 356.87 196.55
  Q 381.59 196.48 406.30 196.50
  Q 406.87 196.50 407.28 196.09
  L 445.30 158.08
  Q 445.80 157.57 445.09 157.57
  L 340.57 157.54
  Q 400.26 98.47 459.95 39.45
  Q 460.77 38.64 461.88 38.07
  Z"
/>
<path fill="#ffffff" d="
  M 269.26 227.77
  L 269.26 343.48
  A 0.53 0.52 0.0 0 1 268.73 344.00
  L 229.52 344.00
  A 0.54 0.54 0.0 0 1 228.98 343.46
  L 228.94 267.87
  L 228.98 206.01
  Q 228.98 204.51 228.47 205.92
  L 193.54 302.50
  L 178.72 343.31
  Q 178.44 344.08 177.62 344.09
  L 151.37 344.31
  L 136.50 344.09
  A 0.90 0.88 80.4 0 1 135.68 343.50
  L 85.99 207.04
  Q 85.00 204.32 85.00 207.22
  L 85.00 343.50
  A 0.50 0.50 0.0 0 1 84.50 344.00
  L 45.50 344.00
  Q 45.00 344.00 45.00 343.50
  L 45.00 158.00
  A 0.50 0.50 0.0 0 1 45.50 157.50
  L 109.96 157.50
  Q 110.39 157.50 110.54 157.90
  L 156.89 284.62
  A 0.29 0.29 0.0 0 0 157.43 284.62
  L 203.48 157.91
  Q 203.63 157.50 204.08 157.50
  L 268.74 157.50
  Q 269.25 157.50 269.25 158.01
  L 269.26 227.77
  Z"
/>
<path fill="#ffffff" d="
  M 288.38 209.30
  Q 289.24 204.46 290.31 199.22
  C 295.81 172.39 314.72 160.68 340.57 157.54
  L 445.09 157.57
  Q 445.80 157.57 445.30 158.08
  L 407.28 196.09
  Q 406.87 196.50 406.30 196.50
  Q 381.59 196.48 356.87 196.55
  Q 344.50 196.58 340.48 198.15
  C 330.82 201.92 328.33 210.88 328.31 220.75
  Q 328.20 265.61 328.29 282.75
  Q 328.37 298.99 341.20 303.47
  Q 345.60 305.01 356.45 305.01
  Q 400.88 304.99 445.23 305.00
  A 0.52 0.52 0.0 0 1 445.75 305.52
  L 445.75 343.48
  A 0.52 0.52 0.0 0 1 445.23 344.00
  Q 394.62 344.00 343.75 344.00
  Q 335.93 344.00 325.57 340.84
  C 296.08 331.84 288.44 308.36 288.30 280.33
  Q 288.12 245.02 288.38 209.30
  Z"
/>
<path fill="#86c155" d="
  M 228.94 267.87
  L 193.54 302.50
  L 228.47 205.92
  Q 228.98 204.51 228.98 206.01
  L 228.94 267.87
  Z"
/>
</svg>
